<?xml version="1.0" standalone="no"?>
<!DOCTYPE svg PUBLIC "-//W3C//DTD SVG 20010904//EN"
 "http://www.w3.org/TR/2001/REC-SVG-20010904/DTD/svg10.dtd">
<svg version="1.0" xmlns="http://www.w3.org/2000/svg"
 width="32.000000pt" height="32.000000pt" viewBox="0 0 32.000000 32.000000"
 preserveAspectRatio="xMidYMid meet">

<g transform="translate(0.000000,32.000000) scale(0.100000,-0.100000)"
fill="#000000" stroke="none">
<path d="M63 309 c-38 -11 -49 -27 -58 -91 -7 -47 -7 -48 19 -48 15 0 43 -7
63 -15 25 -11 40 -12 47 -5 5 5 20 10 32 10 12 0 27 7 34 15 17 20 60 20 60 0
0 -9 -20 -37 -45 -64 -48 -51 -51 -80 -3 -34 l28 27 0 -28 c0 -15 -5 -36 -11
-48 -14 -25 -11 -27 29 -16 44 12 62 56 61 145 0 95 -16 133 -59 149 -41 15
-151 16 -197 3z m65 -52 c4 -20 -25 -34 -40 -19 -15 15 -1 44 19 40 10 -2 19
-11 21 -21z"/>
<path d="M60 95 c-17 -21 -6 -41 27 -48 38 -8 61 14 36 34 -16 13 -17 12 -5
-3 16 -20 5 -28 -31 -21 -31 6 -35 39 -4 37 9 -1 14 2 11 7 -8 13 -20 11 -34
-6z"/>
</g>
</svg>
